/* XPM */
static char *ab79af7ccdcc41c3aaab5ff38e47cd17OAl0YbEKk0hABr4i[] = {
/* columns rows colors chars-per-pixel */
"128 128 76 1 ",
"  c #BC5405",
". c #BE5608",
"X c #BF580A",
"o c #C15709",
"O c #C55B0D",
"+ c #C85E0F",
"@ c #C75F10",
"# c #C95F10",
"$ c #CD6315",
"% c #CF6618",
"& c #D06617",
"* c #D06718",
"= c #D56B1C",
"- c #D86E1F",
"; c #D76F20",
": c #D96F20",
"> c #D67123",
", c #DD7222",
"< c #DF7628",
"1 c #E17526",
"2 c #E37827",
"3 c #E27728",
"4 c #E57A2A",
"5 c #E97E2E",
"6 c #EA7F30",
"7 c #E7812C",
"8 c #E9822E",
"9 c #E9892F",
"0 c #E48233",
"q c #EC8332",
"w c #ED8B34",
"e c #EF8738",
"r c #EE8B39",
"t c #F18636",
"y c #F18A37",
"u c #F38738",
"i c #F38B3A",
"p c #F88E3E",
"a c #ED9137",
"s c #EE943C",
"d c #EF9B38",
"f c #F3933D",
"g c #F29A3E",
"h c #F38F40",
"j c #EF9142",
"k c #EE994F",
"l c #F59441",
"z c #F89743",
"x c #F59B43",
"c c #F89944",
"v c #F49C4A",
"b c #FA9C49",
"n c #EF9F53",
"m c #F99F50",
"M c #F5A245",
"N c #F9A046",
"B c #F6A44A",
"V c #FAA44C",
"C c #F6AC48",
"Z c #F9A84C",
"A c #F4A354",
"S c #FAA652",
"D c #F7A850",
"F c #FBAC55",
"G c #F4A75C",
"H c #FBB156",
"J c #FAB25D",
"K c #FBBA5E",
"L c #FCB562",
"P c #FEBC63",
"I c #F4B06C",
"U c #FBBB6D",
"Y c #FBC05D",
"T c #FDC163",
"R c #FCC56B",
"E c #FECB7D",
/* pixels */
",q1,,,,,,,,------,--=::=-==$$q44111211,,,,-&&,,::,,-:,,11,1,,,&,u8222424421211111,1,1,,,11,,,,,,,-=======:::--=:,:::::::::::::**",
"i1,,1,,,,,-,------===1:==,*&+2841112111,,--=&-,-::,-,-,,1,:1,1&2p8424244222222211111111,:,,,,,--,=======::==-==:,::-:,<----::-$-",
"5,1,111,-,,---,-,1--:::-===&O-t542221211,---&-:--,,,,,-,1,1:--&1yy44222222222111111111,1:,-,::,-===11-=-:==:==--,--:<:-:---::&&f",
"11111,,,,,,,,,-,-:-==11,==-&+&tw22242111,----&--:--,,,,,1:==-&&:7p2421212222111111,1,,:,:::::---==========:=:::=:-:--;-:=--=-+5f",
"1111,,,,,,,,,,,--:,-====-===$+qg244211111----==--,:-,1,,,=--=$--1p222212111111111,111---1:1:-:--===*=======:-->=--:::=:==,-=$-yf",
",1,,1,-1,,,,-,-,:,,-===--==>*O5V42421111,,,,-&&&=-,---,,-==$$-,-,f2111121111111111,1,,1:,,:::---;===&=-=;=;===-====-=:=-====O8g4",
"11111-111,,,,,:,,,::===--====o=bg4224111,,1,,+=--=----,-&$&-41,118t21121111111111,11,,:1:,:::---====**:============;=:;====#=pf4",
"11111111,,1,,,,,:::,---=>===*$+1F9441111,,1,1&&====-::&+&-16tuu5,&u7111111111111,1,,-,--,:,::--=;;===$*,:======::;=======-=O,Z72",
"1111221111,,,,,,,-,,-==---===%+*sC4212121,,<,=@===**$#$:3wi851,1,=,564111111,,,,11-1---1:::;:::=====%%$%>=>*===:,>====-===$$7B21",
"11,1,-1,,1,,,,,,,,,>:--=-==*=*#$7H7<211211,,3;O*==&O$:5lls44,,,1,,&,564111,1,-,,:1::1-1:::=:;;===**==%$$=*==>*,>-*========+=x0,1",
"1,1,,,1,,,,,,1,1,,4,::::-===*=#$<Kw4114111,33;o%#OO-3tzc854111111,,&-56511,1,,,,-::1--1-::=:========%%$%===*=*=======*===#&7B11,",
",,1,,,,,,,,,:,,,,,::::-:-=====$#<Rdw44411,,44% .#-15tq1,114411,,,,,1,&,5211&-,,,11::----::::;=====**$$$%%**====>=*====>*$O1H2,1,",
"1,,,,,,,,:,-,,::,---:>,:-:====&$vEZNNxfwq4qhi=@:35q651,1111211,,,,,,5-&,511--,1,1::::::=:::====;=%&%$***%%%%%=>*====*;=;+*ls,,,,",
",,,,,1,,,,,,:--,-=--:::::>===>&-l4,,4iwpilt3>$1lpt5111111111211,,1,1,,&&,511,1,-:::::::::::=*=**%%&$=====%%%%%%====*==>$$,B11111",
",,11::----,1,-::-=--::-::1<32=$#OooO$==>,,-*$.$,l61,:1,111,,42,,1,1,-,,&$-25,,,-::::=::=::==*=&&*&*====*====%**=***==*$O>8w1,1,,",
",,,-----=--,------:-:-=:,=**$$$&*$$$$+OXX.+$$O$+$q4,1:,1,,,,1541,-,,,,-,&&&121-,::=:=:;::****&==>>>-=====%=%**%%=*$$**+*,f41,,,,",
",,,-->:=:=;=:::=--=-=---&&&&&*====;==**=*% @=**$+&61,,,,1,,,=-51,,1,-,-,&&&&,41::4,:;:::**=*===:--==-========*>,*==%$$+=5s1,,,,,",
",:---=::=:=:==--=--====&=*============%;;=X%>==*&#$54,,,-1,,:-,4,,,,,,:-::*&$:3<,4:::;:$=**==:::-:---========-,,====&++,x4,,,,,,",
"::::--:=:::=-=-====**=&===->->::::===%**;%@%,==*==&&-1,:,,11,,,1111,,,:-:;:;;$:<3;:;;:&&*===::===,:::---=;=:==--==>>,&&yx4,,,,,:",
":::---:::=:=-===*&%*===-=========;=====**%@%>:*=-=&=-&::-,-,1,:,11,-,---;;&,:&+&,<;:&&$;=:=:=:=:-::--=--=:--===-=-==->&>r84,:,::",
"::::::=:=;==-=*$&=-,-==>:-=====-==;===*==%@$>;=:-=-===-=--,-,,,:,1:1----;;&:;;;#&;&$&*::=4==:=:=-::=:-===:=:-----=---==-:,11,-->",
":::=-=======*$$=>,>---41:=---==-:==;======$%;<:-----:---==--,:,::1,:----;;:&*;%#+&*&;**;===:==::-:>===--:===:---->----,-#$&=4r,-",
":==:=-;===*&$$11,-,-=-154--:,,,====;;=====$X;3>:::--,:,,-&==::,:::1,-:--;&;;;*##*;:;*:::=-=--::::-,-==-=--::----:--:--q$$$&&=,1-",
"=======*$&$$&51----:-,,---:>,,:,=====;===%%$;3>-:-,16114,-=&=-::::1,:---;;*;:##&:;*::*::---=-,,,:-111--:::,:,:-,,,:::,q$**=&$=,-",
"=&%&=$$#&==,5,-,,->1,1,-:-::1:::,======:==*#:1:::,,1,-111,:==*=-:::1=----===*#*:,;;;;;;;=:::,::,1,1:,1-,,,::,,,-,:,::6,#*:=***==",
",:=$+$===114,,-,-,,:,-,:-:,1,::::-===:====*#:311,,,,,,11,,1,===--&:---=====&*#*<:;:*;;=:::::,:,,,,,,1,,,,,,,:-,,,::,36=$==;,,=->",
":44:=,,2111,--,---,1,,,-::1:-,:::,=======*$#13,,,,,,1,,,1,14:===-:-1======&&$#&,:::*:::::::::,,,1,1,1,,,,,,,,:,:,:,4i4$*;==-=-,-",
"::2,,3421-,,,,,1,11,,,,,1:---,,::::=======$%4q,,,,,:,1111,,,1:==&&&-====&&&&;$$::::::::::,:,,,,,,,,1,,,11,,,,:-,:6nj3:$==:=*=,--",
"---,:23,-1---1,11,,,,,1,1,:::-:1::,,:::;==$%651:,1,111111,-:,-==&---===&=&*::#$:1;::::::,,,,,1,111111111,,11,,:<Gk=@O$;;-==-,-::",
"-,,-,:32,-11111111,1,1,,111,,--1,,::::::;=$*15111114111,-,,,,===&&&-==&==-:::&#*3:::,:,,,,,,,,13111111113111<3nI>@OX#,:==-=,-:--",
",,-,-,>411-1111--11,,,,11,113115>,,:,:::::&=,541121111,:1,,--==&&-::==--:=:::&#;63,,,1,1111133,1111,,1111215lG0@O@@O:<-=:-:::-,,",
"-,--,,=1111,1,,111,-,111,:::::11:::::;::::&*,541431,,:11-=====&&-::--=--::=-:&#:e4,,,,,,:,:,:,,,1,1-11:1,1383$@$%*@%,,-----,:>,1",
":,1-,,,-41111:11:,,1,,,1-,,:::,---:---=---$&1t741,,,,-1,======$&-1::-::::>u,-=$*24:::::::,,,,,,,:11,11,11111$&&=&*+-,,>-----,--:",
",-::,,,:,4it1141111,,,,,-::-,::--:::----==$&5cw111,,1,-1-==-=$&-11,::,,::,,,-=$&,::-::::::-:,-,,-----,,511,&&=-==&&-,:,-::---1::",
"--11,,1114cJiu111111,,,::-,-:::-::---==-==&+ya411,1:,,-1-=--&$=441:::1,,1,,:--&&;::::,,,,,,,,,,-:,-1-1,1,-&=--=&*&*-,,--:---5111",
"111,,1,14,&,r4-1::::,,:::-,::-------=--===&O8V2,:1-1-,-1-==&#&154111,:,,:1::-:**=,::===:-=-----,,-----,-==---===*$*:,,--->111:1:",
"-1,1,,1151-O$q1:,:::,,,,,-,-------=--=-==**oqc41,,1,,,---=&+#=4414111,,,,,,::,*==;;====-==-==--:,:=--,,,-,---===*$=::::,,-1-,,,:",
",1,,111264*O#q4=::,,,---::----------&=&===$O8z74111:-,--=+&-1t4-,114311,:1,::-*=========---=,>,=&&---1,,,-----==&#=36:-,,,--,,11",
",1,1111251$oO6p==:,-----------&-&--======$o$111544111:,=+&-8fq1--5111344431,,-==;=======--=-:=$$,,:,111,-------=#&3q4>1,,,-11,-1",
"1,111,145-$++4S,-&=--,---,-------&-&=&=&OO=,-&#=->,,,,-&-,yg8441-=-,,1,331,,:,=*&%========-=*$*,145511,,,,-:,--&=354,1::,,11-1-1",
"11111115,=&#O1Fu41-=&&----====-======&#O$>q4,==&$$$&===&8ZN4111111=--1-11141,1==&%===*,>==*$O&wfy5211,,,,,-----&=,--,1,,1,,,,,1,",
"111111331-=$O,S,4221,-&&=-&=-=-====*$O+&3t1-:>----=&$$#$fY92111,5q,-*,4-,,1111-==$%=**;=$+$$,AZw4111,,,,,:,:--=&-,,,,,,1,,,,,111",
"1,1,,144,==##,V3114u64,-&&=&&=--===$o&15q,,>,-,----===&O5Za211111,1,--1q---114--;%%*=%$O$=8ZFs2111111,,,-,----=&--,,,-,11,,,,,11",
",1,,1,5-*==##:l5,11,4641,=&&=&&-=*O+-5q5,,,,,:-----====O,ip41411111--1,1----144*%$$%$.+=4vD92,,11,111,,,,,-,--=&--,-,,,111111121",
",,1,,11==-=#$,e5,111,11111,-&$&&$X$,ty1,1--,,,-,,----==$$7i7222111,,---=---,>16=$$oo.%4fFa21,11,1:,1,1,,,-----==--,--,,,1,112111",
"111,,1:---=+&168111,,,,,,11-:-$O$=5f51,,,,1,-,,,------==O1y5422111,-:,1-=-,---4q$o+$&,BZ411111,,1111,11,,---,,==---,,-,,,11111,,",
",1,,-11:1==#&158111,,,,,,,,,::-$,if41,1-===,-1--------=-$$882211111--11:--=----4q,==>wf<1,,11,11,1,,,,,11,---:===,,-,,,,,111,,,,",
",,,:-141,==#$565111,,,,,,,,,::&&qV411111,,,-,-,,,-,--====+-t11112111--1:---=-=->,3l58w2,1,1,1,,,,:,,,,,,1,,,1-===--,,,,,111,,,,1",
",,,--4411:=#&4552111,1,,:,,,::&=1l111,111:,1,,,:,:,------+=t11111212,-,,--===--==1fZ71,1,1,,,,,,>,,,:,,,,,,1,====--,,,,1,,,,,,,,",
",,,-,44,:>=$$4442111,,,,::,::,-$-f4111,,111:,:,,,-----===$-511,1112111,----===-==:,71,111,1,,,,,-,-::,--:,,-===--=--,,11,,,,1-,-",
",,:&454,,:-$+555214111111,,,,,-+=eq111111:,:,,::,,---,-==&&1411,1,14111,,,-===&&=:13,3,:,--,,11,-::,,-:>:-===&=-=---,11,,,,,,-,-",
",,=-4411,,=%+45411111111,:,,:::$&1f1111,:111,1,1-,,,--,-==&,41111111211,,,,,===$*:343:-:-,-,:,::::11-::;======------1,,:,,-,,,24",
"::&,1111,,=$+1t5111111111,,,,,:&#,z2,1,,,1:,,,,,,,,,,,-,,-*=351,,11111,1,,:,-*=&$,qe1:::,,,:::-::15:;====*=====>&--,1:,:,:,:,,,:",
":-=141,11,*&$4i411,1,,1111,,11-=$=i811111,1:,,,,,-,,,,,,1===,t,1,,1,1,1,,,::,=*=$,e,1543,-:-::-::--======**===,--=,1:,,44,::::::",
":==41,,,1,&&+1b4111,,11,1,,1,1,&$=4i11111111,,,,,,,,,,,,-==&>q,,,,,,,11,,::,::=&$#+@#,111,---::--=====*====*-*1>4-11::11::-:::::",
":==4,11141=&+-z1,11,,,,1111,,,--&$1p41111,1111111,,,-,-----&*45,,,,,1111,,:::=&&****$$&*==-==&*==========**-====11,:,:,-::::----",
"-&,1,-==-,1$O-z11,1111,1,1,,,,-==+:y41,,11,1,,1,,:,-:::---==$,4,,,:,:,11,::::***====-=****====&&$***====***====*:1=:::::::------",
"=-,,-=-=--,=+:p4,1,11,,,,,,11,--=+=8e1,1,,1-,,-,-,,,,:::---=&$2=:,,:,:11,,1:=&*=-=-=--=*=-=--,:==*$#$***$$*,===,1=::::::::----=-",
"=::=---::=:-O-651111,1,,,,,1,:::=$&1f1111,,,,,,,--,-::--=-===$,==:,::::111:=$*--=---=:=-,-::-:134>-=$#@#+$,>==>,:=====:=--===-=-",
",:=:=-::::::O*551,,,,,,,,,,,::::-=+=l11-,-1,,,--,,-,:::--:==*$1--=,::::131=&*==:---==,:,::-,::,:,11:::*$++*;=>,-:=:=======---===",
":--==--=-:::#*4q,,,:,,:,,:::::::==O=f41111,,,,,-,--::---:--=&&=1=---::11==**====----==::::,-,,-::,,,13466,%=-:>==;==:====--==-==",
":====-======#=56,,,:,,,,:,-----::=O&4f1,1-111--,,---,:-====-&&&,::=--:=***====-:-:1-:-1:,:,,,::,,::,135qi4$*-::;:==::===========",
"--=======&##O&65,,,,,,:,,:---&:::=&+>z1111=,--,----,===&====*&$=:=-=--====:=-:::,-:,1-:,::,,,:,,,:,113,,33-$=:;==,:==:==========",
"&&$+OOo+##&*##33,,,,:,:::------==,=o=i41-1---,-,,---=========&#=,:==*=====---::::::--1,,1,1:::,,,113,,>,,4:$--===::=======*====*",
"+$&==144588tq,1--,:,:,::::==;;====;@*4r,,,13,->::>===========*$%=,;%=--->1-:->-,:,,,,,,,,,,,1111111,,,,,,11===:===,==*=======%$O",
"4145ttypNZVCCct,=-,::::,==::;=====;#$3be31,:---:==,<=======**%%$%$$=-:::,4-,,,,-,,,,,,,1,,,1111111,,,,,,,:3-&======*=====***%%,4",
"5tt5411188474445==,,:,,===;;======%##,40ihi41,::::,>=====%===%*%@$=;>-=:,,-:-111,,,,,,:,,114111,,,1,,,:,::<,$=====3;===*****=*>5",
":1,11,,14841111f:==,>=;===;===&=;%$%@@XXOO$,5444,:,,======>%%%*X@;,==:-==:---,11111,1,,,141,,-,,,,,,,:---->3=*===%;$**%%***==**;",
"11,:11,41441114t1-===:,&======>>%$$$%$$$$@@O+$**===*****%%=%**% %<;*===--:---,5-1111,,,14,,,,-,,,:,:-:-::::,:$%*%*%*%**=====>===",
"--,:,,114211,11-y====&*===*==,>$@$%;==*;*==**$$#$$$==**%$$$X@O.X=<====;:-----:14,,,,,1131,,,,--,::,:::::::=,,$%*%*%%*======-=>==",
"=1-=,,11211,11,-,===%%&&&%%%**OXX$,;=*===============;=;==%%$$X@>;=*=====-:--,,4,,,1,111,,::,,,,:,:,--:-:=;,=$%%=%=====;==-==-==",
"===-==,14111,,,-====,,:=;=*=%@@O $<;=====;====--;==;;;===>>>>>;*;===*=;==:=-=::,,,,,,11,,,,,,:,-:-::=---;==;=%*=======:=-----=--",
",1::-=-,,111,,==&==-,1,--===;$$$X*<>-=====----==::->----======;***;*====--:-=>:,,,,111:-:::::::::::=;;;;====**====-===-:--=,,,1,",
",1111=-=-,11,,=$$=-,,,---===:%$%@;3;====*=-====-:=-----========*%%*=====;-=--::-,,,,1:--:::::-:56-:=*=========;=:---::::-,,,,=,,",
",:1122,&=,,,,=+&:55,----:--=:=$$@>3;==,>==---=-,>--,---=========*%*======-=---,-,:,,:,--:--:::::::==*==*==*&=:;;=--->,::,,:-,,1,",
"1111252-==-,=+*,5q21,--,--====$%@,<:--111===---::,:--=--;========%%**=====-=---,,:1,1,--:--:--==-:=&==*;*;*#=,:;:=-,-11,,,,11,1,",
"111425p5>&&&+=1ip1,11,--:-=-=-&$$,1:-,---1-=------>,--,-:::=====>%==*======----,,,,,:-----:-:=:=:===*==*==%@:<;,,::,:4,,,,,1,111",
"1422228f4-Oo$5xq2,,,-1--:::==-&$%31--::,,-,11-,-1,,,,,::::;:::::>$*=-==**=------,,,,:-::--=-==::=&*=====**#$<,:,,,,>,,,1,1,11111",
"14211117x4=>2Zc1142,-,1--:,=-==+$3,-,,,,,-,,-1,,,,,,,,::::::::=-=*%$&:>*==-=----:,::::::---=:::&&==*==**=$O*43,,,,1,111111141111",
",11,1122qrqeUL,1,111,1,,,:=:,==$$311,:-,,-,,-,,,-11,,,,,,,,::=1->=$$$=,====-----,,::----====:=&&=&&==*=*%%$<6,,,1111,,1111111111",
",1,,1154,=&&4L711111,,,:1-----=$$t1,,,,,,,,,,,,,,,,,,,,:,:::==,=;=+@ooO#$#&&&---::-----=--&--&&==%=%*=**%$;35,,>:--,1,,,,,,,111,",
",,,1451-=$o$1N8822111,1,--::--&$>q,,,1,1,,,,1,,,,,1,,,:,::---=1==@%pr,*&&&&$+++$&$+$&==&-&-=&#&=%=%%***%$+*,,,:=-==-:,,,,,,:--1,",
",,1111=&+#o$,iw22221211,:::,::&&:61,,,11,,1,,,,142,,,:::::--=====O:lPZlq6511,11611,-:&+++++++++#%%$%%=%$@X$;3>;:-=---:,-,,,,-,-,",
",,,,,#O+&*$$,492112121111,,1:1=&16,11,,,,,,,,1111,,,,::::::--=-=%o3lMaqtuu666uuuu6uutuu4221,---#@$$$$XoO.O$*3-=;--==--:,-,-,,-,,",
"=-=&+&====&+34741,111121,,1,:,&&36-11-,,,,,,11411,,:,,,-::=----=&+5p7222221115112111144555555511=%$@$$*=*%%%,;=;=>--=->-:::--===",
"====*======$%2q51,,111,,,:,,:=$$5511111-,,,111111,,,,,,,,6,,===*+&qp2244211111111,1,,11,,,,,,,1255<>,>>==*=;==;===-:----:--=====",
"==--,---===&$=4511,,,,,,,,:::=$&551111,1111411,,,,,,,-:::6:,*===O:p5412422221111111111,,,,,,,:----><>:;=;;;=%$==-=====-==&&&==--",
",-,---,---=&=&>521,1,,:,::::--+=u5111111112111,1,,,,,,,:,5,,==&*O4p441442225111111,1,,1,,,,,,:--->>>;===;==%$%%=======&$&&=-,1,,",
",-,-:-::-,1,=$*12<,,,,::::,:-=+-u41111121211,,1,,,1:::,-:,::*=*$+qu42222222111111111,,1,,,,,,--,,-:==>-===*%%%%$==**#+#&=11111,,",
"11::,:,-,>,:-*$:71,::-::,<::=&O,p211112111111,,11::1,:,::;::::=#=yt212222222111111111,,1,,,,-,1----=-===*=**%%$%$$$+&=,14111,,,,",
"-:1-,:,,,,----$$2<::-:---,::=&O1N51112114111,11,,11:::::::=:::*O1p52211111221111111,,11,,,,,-,--=----==-****%**%$O&1,45511,,,,,,",
"--1,,,,,,-::--=+*<,:----::::=&O,p9121111111111,11,,::::,::,:;=*O5p222111121251111111,1,1,,,,,,------====>***%*;>=$-VJa721,1,,,,-",
"1,11,1,,,-::-=-=#-<::::::-:=;$+:8y2122121111,1,,:,1,>::-:,::::$;qu212222211222111211111,,,,,,,-------=*=-***=**=;*%,gN9211,,:,,:",
"11:11,,,,,>::-==$%<,::===-=:=#+:4a9954221,,,,1,11,145,,,,,,::=#$5y21211112111111111111,-1,,,,,------=,,*>*%*======%$28ga54242222",
"41111,,-,,:-::-==$=,=-=====>=##,wCMd6u5551,111111111,1,:;==*&%##2p211,11211111122121,,,-1,,,,,--=--=-->==**=>>*===*$$25dpq544444",
",1111111,-=:=::==**=========&O&9TY91,1122211,1,,:1:-==========$O4p111,1,,1111122212411111,,1,,,----=,,>=**=*,&*=====$$:11211,1,,",
":11,,1111-=::::===******%$$$$o>BRw,---::,1111,,,-,,4,---==*===*o1p11,111,11,11111421,111111,,,,-----=,*=*=====-===---&&=:65111,-",
"1:,1,-,:11::::;;;==*****%$$$$$4eq-=*====-1:1111,,,-,,-,,:======O-u411,1111,11114211111114,,,,,--::-=-===*======-=-=---*==,541,,1",
"::::,:-,::,,,,:::=*%****==;==**=-*=---,,:1,1111,,,,,11,-:::::==O&6511111111111111,112511,,,1,,-,:----==*==-==--==--::--==-141111",
":11--::-==::::,,:*=*====;==;==&&=-4>,,:,,,,1111,,,141,-,:::===:&$56,11,11,,1,,,,,,,12111,,,-1-,->---==*====--=-----:::-:=*=14,,-",
"::::,---=----=*==*=====::===--===,1:-1-1,,,,1,11122,,,--:::==:==O1u,1,1,11,11,,,,1,,,,121-,,,:,,:---========-==--==:::,:--=-1,,-",
":::-------:=**====---=-::::--:==--:-----:,,,,,1121,1,,,,::-::===O=u111,1,,1,,,1,,,,,,,,,11,-:-,-:--===*====-=-----:,::::--,&,,--",
":1::=-=--==&=*===:-===::::-:::=-=-=-1:,11,,,1-1521,,,,-,::::==::#+5t--,1,,,,:,,,,,1,,,,,,1,,,,,::--========-----:-,,::::,,,-=,=-",
"#&==:-===*$$-1::::-=-::::,:1::,11&*---->:,,,,11,211,,,,,::=:::,=&+=611,,,,,,,,,,,,,,,,,,-,1,:,::->-========-----:,,,:,,:,--,-11$",
"=&&**;=;$#*:,:,:-----,,,:1-,,,:11-$::-::-,-,:11-1111,,,,:----,-=&$&11-,11,,,1,,,,:,,,,--::13,:,:-1-=&-=---:---,,--,,-,,,-,::1141",
"1:#&;**##;,:,:---=-,,,,,:11:1:,141#&-::-,-,11,1,111111,1:--::====$*-1,-------:--,,,,:,-,::::11,:--===-----------,,--,,,--,:1::,5",
"511##$#*,33,::,>-,1,,,,11:11111153$&=----,,--,11111111111,,,::---$&-,,-:---------:---:,-::::-:,,--==-------:-,,,-,,,,,,-,,,,:1,1",
"4431$O*,433,,11,1,1,,,,,:11-,,,154&$-=------,,-111,,,,,,:,,,,:---&=-1,::--------=-:::-,:=;::=--:,-==-----:::,----,,,-,,,,,::,,,,",
",334,*:3<,,1,,,11111111,,1,11,11wq=O=-------11-:,1,,-,,-::::-----**=1,:::-----=---------::=::==:-,-=---->---,---,,,,,,,,,,:1,,,1",
",1346:=:::::,1,11,11114414544444aw,O===------:--,1,,,,---==-=--=*$$$=*==-----:----------:=::::::---=-,,--,-11-,-,,,,,,1,,:1,,,,,",
"1,164:$:;:::::,,1,,,,114544545424i4$$===-------,,1,,1----:====&&*&+$=-$$&==------=-===--=::===;====,,,--,-,--,,1,,,,,1,,1,,,,,1:",
",1143*$=;=;=:::,,,,,,,11,,,,,,,,1e5*#*==:-----1-,1,,--=-====&&&&&$*6p41,&+$&=&==-=-=-1&====:=:=====,---,-,-,1-1-,,112,,,,,,1,111",
"1,>33*$==:=:--::,,,,-1::::,1:,,,,qe,O*%*=>=---->-1,:==-==&&&-&&&=14452455,&&+&&&&-===,:=========&&1,,-,--,,11,,,1,11,,11,,,111,,",
",,,55$$*-=;:=---,--111,111::,,,,,qq,+$***;-==----1::-===--=--,111=-5211,12554-&+$$&&&-&-=====;*%&11,--,-,,,,,,,,,1,1,,,,1111,11,",
",,,35$$*==-=::---:,,::=1,1:111,1353=+%*=**:=--:-,1:===&=&=-----,-=,51,1,,,,,14551,&$##&&*====*#=11--,,,,,,,,,,,11:1,11,11111,1,,",
",,,35$$******:--:---:::::::1,,,131=#$=**=&->-->11:&-&&===:=-=-,,:-1611,,,,-,,-,,111,:=&##$&*=#%<1,,-,--,,,,1,,,,,1,111111,,,,,,,",
",-,45$@$=****=;>------:::::,,:,1,*$&====**$;>,--=&&&=-=-=-=--,,,,-1511,1,,,,,-,::::,,11:=&####;11,,,,,11,,,,,,,,1111111,1,,,,,,,",
",,,43%o$%%***====--==----:::::::=&**;:=:=$$@*=&&&&&-&-=-::::1,,1,:441,1,1,,,,,,,::::---::,:=%&151,,,,,,,,111111111111,,1,,11,,,,",
",,,4,$X@@$%%*%===-====-------=-=*==:====:=$$$***&&-=--=:::,,,,,1:,54,1111,,,,,,-:::----=:=::;=&6,--,,--,1,,11111,1,,1,,,,1,,,,,,",
",-,2,*%=*$%$$$$*&&,-==:::1,=&===::::=:::-==$$*,>,,--:-::,,,,,,,1,1u411,11,,,,,,,,,,:----::;==&%:1-,--,,-,,,,,,,,,1,1:1,1,,,,,,,,",
",:,1-,1411,,==**$$*>%==%&#%*=;,:::::-=::::=$*1--:---,,,,,,,,,1,1146511111,:,,,,,,:::::-:---=-=&&2,-,-,,--,,,-,,,,1,,,,1,,,,,-,-,",
":-,-=----->-->-===*$%$$%$%O;14,,,:1:1:::::=#&1:--:,-,-:,,:1,,111445111111111,,,,,,,:::----=---&&&1-,-,,-,,,-,,,-,111,,,,,,,,,---",
"---:::-=-----=-===;%%%*%%$o*5q,:,,,:,1:::=&&&3::,,::,,,,,111,111,2111111111:1,,,::::,-:--==---&=&-,-,--,,-,,-,-,,,,,,,-,,,,,,---",
":--1>-:-=--=-==-:====*%==*##463,,,,::,,::=&&&3,:,-,,,,,,1:1112111522211111,11,,,1::::,,:-==-=-=&-------,-,,-,,,-,-&,-,,,,,,,-,-,",
"-=-,,-----------===>*=%%=*%O33311::::,<,:=*%&41,-,,,,,111,11411:15542222111111111:::-,,,,-----=--&-&-,,-,--,,,,,,,,,,,---,,,--,-",
"==-1,,:-:----:--;==-=*===**o<41<:111311,::&%&1111111,1144224111=151522221,111,1,111:,,:,,----::-&------,--,----,,,-,-,,,,,---,,-",
"==111:,,,-:=:-:->=-=;==%%%=O,4,111,1311,::**&11,11111111111111,=6z2225212111111,1:1,,,,,,----=-::----&--,----,,-,,,-,,---,,--,-&",
"=141,-1::,>:------=:==;;==*#=433111111,1,::&&11,,,,1,,,,11,111--zu512221211111,1,1,1,,,,,,,----:-------&----,-,-,--,--,,---,-,,&"
};
