/* XPM */
static char *_c6c895a291842eb8d1dbdd682df78a3BpClGLEO6mAmiGNp[] = {
/* columns rows colors chars-per-pixel */
"128 128 86 1 ",
"  c #5E3F1C",
". c #61411F",
"X c #5E4326",
"o c #5F4428",
"O c #654523",
"+ c #674825",
"@ c #694926",
"# c #604528",
"$ c #6D4C29",
"% c #714E2A",
"& c #75512C",
"* c #7C552E",
"= c #7F582F",
"- c #69523B",
"; c #725435",
": c #7E5730",
"> c #7F5831",
", c #7C5A38",
"< c #645545",
"1 c #6E5945",
"2 c #645749",
"3 c #63584E",
"4 c #6D5B4A",
"5 c #705B45",
"6 c #725E4B",
"7 c #635B53",
"8 c #635D59",
"9 c #6D6156",
"0 c #65615E",
"q c #6B635B",
"w c #666565",
"e c #686766",
"r c #6C6C6C",
"t c #757575",
"y c #787777",
"u c #7B7B7B",
"i c #80572F",
"p c #81582F",
"a c #845B31",
"s c #895E33",
"d c #865F38",
"f c #8D6135",
"g c #8D6439",
"h c #926437",
"j c #946638",
"k c #96693A",
"l c #9B6C3B",
"z c #9E703E",
"x c #A06F3C",
"c c #A1713E",
"v c #966D41",
"b c #996F41",
"n c #9E7242",
"m c #A37543",
"M c #A87743",
"N c #A57946",
"B c #A97A45",
"V c #A67B49",
"C c #AA7E49",
"Z c #807F7F",
"A c #AD824D",
"S c #B2854E",
"D c #B6884F",
"F c #AE8450",
"G c #B18651",
"H c #B58A53",
"J c #B98E55",
"K c #B88F58",
"L c #BC9157",
"P c #BB9259",
"I c #C09357",
"U c #C09558",
"Y c #838282",
"T c #888787",
"R c #8C8B8B",
"E c #908F8F",
"W c #959595",
"Q c #989797",
"! c #9B9A9A",
"~ c #A09F9F",
"^ c #A2A1A1",
"/ c #A8A7A7",
"( c #ABABAB",
") c #B5B5B5",
"_ c #B8B7B7",
"` c #B8B8B8",
/* pixels */
"$$aKkhffsasspishhffhjMC,$O+&nDnljhffsfhfasffhlxIl&@@%=AclhlhssssasshjllxcD=$.@&zJxxjssssppsfsshjjlDB*$O$*Vnjhffkpaaaappssgssmk$.",
"+$aKkhffaaaaapfhhfffjMCi@O$&nDxljhffssffssffhjxDl&%.%=DBlhjhsssaasshjjlxMD=$O+%zJxljffpspsshshfjjlDB&$O+&VnjhhhkpaapppasssssNv%O",
"O$aJkhffsaaaapfhhffhhMB*$O+&MDlljhffsfffasffhxxDl&@.%=HclhhhssssasshjjlxcD=$.+&nDxlhsssspssfsshjllDB*&+$&VnkjffkiaaapapgssssNv%O",
"O%pJjhffsaaspishhfffhVC*@O+&mCxkjhffssffssfffxxIl%$.%=PclhkhsssaaashjjllMD=$.+$AAxkhfsssppsfssfjjlDB*$++*CzkhhhkiaapapasshshVs%O",
"+%aHjhsssaaaaadhfffhhMV*@O@&mGxljhhsssffasffhxcIA&$O%=KzjhlfssssasshjlllzH=$++$AAllhfsaspssfsfhhjlSV&$+$&AzkhfgliaapappsssshCd&O",
"+%pHjhssaaaaaashffsfjMV*@.%&mGlljhhffshfssffflxDA=$O$=PzlhhhssssaasshlllzH=$O+&ABlkjsfaappffssfhllDV&$O$*CljhfgjiaaipaasshssCd%O",
"O$aHhhssaaaaaishfsfhhBV*%.@&MDxkjhffsshssssfhjxDAs&O%fPzkhhhasss=ashjlllzJ=$+O&FMkjhsssspssfpffjjlSB&+X$*AckjfflpaaaaapsshhhCs%O",
"O%fSfffsaaaaapshhfffjMV*@O@&CCllhhffssffafsfhxxBLj&.$aLzlhkfssssaassjlljzJ=&@O*FMkkhssaspssfsffjjlSB&$.$&AmjhhfjpaappppsssshGd%O",
"O%bSfssssaaaaisfhfffhNN&@O$:VSllhhhfsshssfffhjxSLz%.%=PzkhhhsssaaasshlllzPa&++*GMkkhssaspssssssjjlSN&$.$&AzhjfhliaaaiaisshffCs&O",
"O%bChsssaaaaaasffsffhNN:$O$&VCllhhhffsfsafsfhxxcLl%+&=HzkhhfsssaaaaslljjzJ=$.+*AMljhsssspssssshjjlSn&$O$&AmlhffliaiaaiasssfhCd$O",
"@%bChsssaaaaaishhsshjMN&@O$:CSxlhhffssffshsfhxxSJf%.%=PzjhhhassapaashlllzJ=$++*ABxjhsssspsspsssjjlSn&+.$&VmlhhgkiaaiiapssfffCa$O",
"+%kChsssaaaaaasghsshkmm:$O$&mCllhhffssfssfsfhlxDA*%+%=HzlhhhssssaaashllhlLa&$@=ABxjffsspissssfsjllDn&$O+&VnlhffkiaaiaiaassfhGa$O",
"O%jCssssaaiaaisgfsffkmn&@O@&mSllhhhfssfssfffjlxJf&&+%=HzhhhssssaaaashlhlkPf%+%*AAxjhsssapssssffhjlSn&$O$*nNlhfflaaiaiaasssfgGd%.",
"+%gFhsssaaaaaisfhsffknMi%O$&mSllhfhsssfsssffjlcLl*&+%=PlhhhhassapaashllklP,$+$*nSljhssaspsspssshhlAm&$O$=nNlhfgliaaiappsssfhCd%.",
"O%sChsssaaaaaasfffsfkxCa@O@*bSllhhffssfssfffjlcIl*$.$fKlkhhfassapaaahhhlkJf$+@*zDljffsaapspsssshjlAm&$O$*nVhhfhlpaiapaaasshhGa%.",
"O%sGssssapaaiissfsffkbCp@O@&nSklhfffasfsfsfhjccIk&&o$=KlhhhssssapaashlklkJ>$+@&kDljhfasapspsssshjlmF&@.$*nVlhhflaiapiaasssskGa%.",
"O&vCssssaaaaapdhfsffhxBa$o$&nDbljshfspfsssfhjlcIk%%O$aKljhhhassaaaashjjllH=$++&zGkhhssaaasasafffklMKa$O@*mMjhfhjiiaiaaiassfkCs&.",
"O*jCfsssaaiaiassfsffhbBs@O$&nCllhssfssfsfsfhjlcIk*%O$pKxhshsassaappshjjjlHf%O+&nAlhhssa=asaaasshhvMKa%O&;MmjhfhjaaapiaaassslJa&.",
"O&lCfsssaaaiaisffsffhlCa$O+&BCllhsfsssssssshkxcIbp%O$pKljhhsassapaashjjlkH>%O+&AAlhsfaaaaaasssffkkMCi;+%*VnlhhhhaapppaaasshxGi$O",
"O*nCfssaaaaaiashfsffhbCd@O$&NCxhhssfpsssssfhkccIk:$O$:HlhhhsassppaashjjjkKf%O+&AAlhhsaa=asaaasffhxMCi$#@*VbjhffhsppaaaassssbGa$O",
"@*vCffssaaiaiaasfsfffxCd@O@*nCmkfssfasssssffhlcIk*$O@iHxjhhssssppaashhhllH=$++%ADljffaapassassfsklMCi@O$iCnvhffhsiiaiaaassfxHi$O",
"@&bChfssaaaiapshffhssxCa@O@&nCxkssssaasssssfjzcJk*$O%*HnhhhspsspaaashhjjlK=%o+&lDljfssappspsssshhxMDi$O$iCxjhfshfpapiaassssnGa$@",
"$&vChsssaiaipaffffhssxCi%O@&mClhfsasasssssffjccJk%++%:HmhhhsassaaaashhjllH=%O+;zDljfsaapssspssffhbmG%$O$sHljhhsffpaaappsssfbGa$+",
"@;hDhfsdaaaaapfffffssxDa$O@&MCnhfsssasssfpffjlcLk%@O@:HnhhhhasspappshjjjlH=%O@&lJxkffsaapspspssskxmG*$+%aCbjshfhfpapiaaassfnGa$O",
"O&dGhsssaaaapaffhfsasnF*%.@&mCnfsssspsssfpsfjxcJk&$O$:HnjhhsssspaapshhhjlJ=%.%&lJxkfssppsfpssssshlmG:$O$iVnlffffhiaiiiissssxCs%.",
"O&sGjfsssappppffffssfmG:%O@%mVnfssspasssssssjcMHk&$O$:HxjhfspsspaaashhhllD=$o$&lJljfsspppfpspsshhlBC&@O@&NmjfffffiiaaaaassslCf%.",
".&aChfssaaapapffhhssfMG*%O@%nCxfspsaassaspsfjxMDk&$+$:HbjhhfpsspaaashhhlzH=%O%&lLljffssppfpssssfhlMC%@O@&VmjhfffsiaiiaassssxCf%O",
"O$aCjsssaaappahfhssssMG*%OO%bBxfssspssssfsssklMDv&$O%pHchhhfsssiaaashhhklH=$+$&kJxjffspppfpssssshxMV:@O$*NMvffshfiiaiaissssxCf%O",
"O$dChsfsaaaapphfksasfMG:%OO&mClssspapfpsspffjlMDl&$+%aHljhssasaaaaasfhjjlH=%O$%lDlhffsppphaaassfhlBC%@O@*NMhssfffiiaapasssfbCg%O",
".$dChssssapaaaffksssfMH:%O.%bCnssaapffssasssjxBHv%$+%aHnjfhsaaapaaasshhjzH*%o$$ADxjffsspafaaassfhbmV*@O$&VBkhhsffiaipaasssfnCj%O",
".$aVhsssaapapahfjaaffMHi&+O&nClssaapfapsssssjlMHl&$+&aHlhhfsaaaaaaaasfhhzH=%.%&ASlfffspppfaaassfhlmV:@O$*NChssfhfiiapppassfnCd%O",
" $sVhssaaaaapahfjasshmHp&OO%bClsssapfaspspsfjlMHv&$+$aJljfffsaaaaspsshhhlH=%.%&ASljfspspafaaassshlmC*@O$iMBhffsffiaiapasashmCa%O",
" $smhsssaaaaiaffjasshmHa;++&vCksssaagasasassjxMHk*$O$gHlffffaaaaaaaasfhhlH>$O$&VCkhsdaaaagpapssshknGp$O$*CVhfsffsapapaaasshbCs%O",
" $dmfsssaaiaaafhhaasfmHa&@O&kAkssaapfaaaasssjlMDl&$o$gFlffffaaaaaaaasfhhlH=$O+$nCkhssapp=fapaapsfkxGp@O@&CNfsssfsappapaasahlCs$O",
" @anfssaaaiiiafffaasscKa&+O&jCkasaa*gaaaaassjlMHk&$X$fAjffpfpaapaaaasfhhlH*+OO&NCkhssapapfpapaasfhxG:@O@&AMgssssspa:apaaashkVa$O",
" #dnfasaaiiaiasffaaaslJ*&@O%gCjaaaaidapaapaahlcDk$$O$fAgfafpa:aaaapaasffkF*$OO;nBhssaaap>fppaaaafhlG:@+@&CnfssssappppiaasphkN:$O",
" @absasaaiiiiissspaafkH=$@.$gVjaaaiispppppaahkcDg$+O$,Agpaaa=>>i>a*aaasfkF&@++$vMsssaapp*f:>paaashvC%+O@;Cbfaaaaaaa:pp:aaagkm:$O",
" @ivsaaaiiiiiiada=aaakF;$+O$fNsaapiiapppppapshlCf$$O$,nffaaa*=aaa**a>aasgA&@++&kmsspapp:=a*:pppasdkV%+O@&Vlsaaaaa:ii*::aaaskn;$.",
"XOivaaaiiii::iai==a>>gn&@OX@dbaappp*a:pp:pppsskVa$XoO=nfpapapa:**a*aaaaafn&Xoo$kkappa:p**a*a==ppdasm%Oo#$vkaaaa>a*:iiipaapdsb%OX",
"e01faaaii::::iii=====fv<0ew8,ga:pp:*:::*:::paasb;7ww0;k>p===***i*>**:>a>ak<wew3fgpapap***a**====aaag2wew<vgaaaa>:****i*appaah<0w",
"rrw6111444411<11444444qrrrrrw8804434444411111156wrrrrr64444444431144444479rrrrr961444444364444445559rrrrr85511111443444455556wrr",
"YYZuuuuuuuuZuZZZZZuZZZYTTRRTYYuZYZYZuZuZuZZZYYYYRRRRRTYYYYYYZZZZuYZYZYYYYTTRRETTYYYZZZuuuZuZuZZZZZYYTRRRTYZZZZZuuZZuuuuuZuuuZZYY",
"!!QQQWWWQQWWWWWWQQQQQ!!!~~~~~!!!!!!!QWWQQ!Q!!!!!!^^^~!!!!!!!!QQ!!!!!!!!!!!^^^^~!!QQQQQQQWWWQQ!!!QQ!!^^^^~!!QQQWQQQQWQWWWWWWWWQQ!",
"uZuuuyuyuyuyyyyyuuuuuZZZYuZZZZZuuZuZuuuuuZZuuuuZZYYYYYYYZuuZZuZuuuuYZZZuZZYYYYYYZZZuuZuuuuuuuuuZZZZYZYZZZZZuuuuuuyyuuuuuutuyuuuZ",
"yytttttttytttrtttttttyuuuuuuuuuuuyuytttttuyuuyuuuZZZuYZuuuuuuuuytuuuuuuuuuuuuZuuuuuuuuutttttuuuuuuuuuZuZuyuyyyttyttrttyyytttyyyy",
"ttttttttttrewwrttttttuuuuuuttutuyyttrwwwttyyyyyyuuuuuuuyyyyuutrwwryuyyyyyuuZuuuyyytyuyttwwrrtttuyuuuuuuuuyyytytttrwwwttttttttttt",
"yttttttttrr(EQ!rtttuuuuyuZuuuuuuuuyrR~E(Ztyyyyuyuuuuuuuuuyuyur/WW(rtyuuuuuuuuuuyuytuyttu/E~ErttuuyuuuuuuuyyyytttrQ!E(trtttttttyt",
"yyttrtttttw~_)Tettttttyuuuuuuuuuyyyrt)`(rryyyyuuuuuZuuuuuuuytwW``!etyyyyuuuuuuuuyyyuttrr())urttuyuuuuuuuuuuyytttrY``^wrttttttyty",
"ytttyttttrw^``Twtttttuuuuuuutuutuytrt))(rttyyyuuuuuZuZuuuuuyyeW``!wtyyuuuuuuuuuyyyytttrr(`)trtttuuuuuuZuuuuuytttwY)`^etttttrttyt",
"tytttttttrr(W!!wtrttuttttuuuuuuuuttrR/W(ZtttyyyuuuuZuuuuuyyuyr(Q!(rtyuuyyuuuuuuuuyyyuttu(W^Ertuuyuuuuuuuuutyttttr!~W(tttttttttyt",
"ttttttttttrwwwrtttttttutuuyyutuuutytrwwwttyyyyyyyuuuuuuuyuyuutrrrruuyyyyyuuuuuuuyyuyytttwwwttttyyuuyuuuuuyyyyyyytrwwertttttttttt",
"tttttrtttytttrttttttutuuuFuuuuutyuuuytttyuuuuuuuuuZuZZuuuuuuuutttttuuuuuuuuuuuuuuyyyyuutttttyuuyuuuZuZZuuuuuyyyytttttyyyttttttyy",
"uuuytyyytyyyttyyyuyyuuuZYYYYYZZuZZZZuuuZuYuuuZZuYYYYYYZZuZZuFuuuuuuYZZZZZZYYYYYZuZuuuuuyyyuuuuZZuZuYYYYYYZZuuZuuuuyuuuuuuuuuuuuu",
"QQWWWEWEWWWWWWWWQWWWWWWQ!!!!QQQQWWWWWWWWWWQQQQQ!!!~^!~!!!!!Q!Q!WWWQ!!WQ!Q!!!!!!!QWQQWWWWWWWWWWWQ!Q!!!~~!!QQWWWQWWWWWWWWWWEWEWWWQ",
"TTYYZZZZYZZYYZYZZYYYYYYRRRRRRTTTTTTYYYYYYYYTTTTRREEEERTTTTTYYYTYYYYYYYRYYRRRERERTTTYYYYYZYZFYYYYTYYREEEERTTYYTYYYZZuYYZZZZZZZYTT",
"rre64144444111154444444wrrrrw4447444414341111416wrrtrrq4443788114444444446qrrrr0444164414<418774146qrrrrrq4451114444111114446wrr",
"ew-ga=a*=**=*a:**p=pppv;8ew7,ka:===*>>>>**=pappb,3wew<gf>>==**p*a***=ppp=k>3ee7fdai*ii*:p*=*==apppv,8wew2fgaaa:*a*i****ppp>=g-0e",
"oO*naaaap=*p*a:*pppaaabp+oO@gNa>====>>>a*ppaspaVf$Xo#%nk>f>=p*a*a*pppaaafng$oo+vkaaaaa*aa>ap=paapfng#ooO$kvaaaaaa*p*p*a*ppfan*Oo",
"O$:Vffaaa*pa*aa:=aaapaNa$O@%jChppp==a>>>*apsfsfAg&+O$&nzffpa>*a=a:=>paaafAg%+#$nksaaia*a*aa*=paaffBk$+O$&nmssaaaa**:pp>aapffn>$O",
"O$;Afffaaa>:>a>:paaaadVa$O$%kShpppp=faa>=>afjfjDg&+O$&Azhfaaa*aaa*aaaaafgAg%++$nmfaaaaia*aa*ppaaffAk&+O$&zVhsasaa=a=:aaaafffA>$+",
"+$:FjffaapippaaaaaaassVa$+%%bSjssppaffafapahkhkDg$+O$*Azjjpf==sps:aaafffjGa&+O$nmfssaaaaaas>apffjfAk&+O$&nChfsssfa>papaaashhVf$@",
"+$>GlffaaaapasaaaaassfVs%O%%bHjsssppffaaaaahkhlJl$$X$*AmhlffppfpfaaaaffflA=$+O%nMhsaaaaaaasapagfjhAn&+O$&nVjhsfsfaaaaasssffjCk;$",
"+$aGlhfaaapaasaaaasssfCg%@%&MHjsfppfffafpaahkjkJk&+O$*ANlkfappfasaaafffglG*$+O&VVjfasfaaaafaaaffjjAn&$+$*NMjhsfshaaaaasfssfjCn*$",
"+&aHlhhfaaapassaassaahCj%@%*CSkspfpfjfffaashljlJn&@O$*ANllffspsafaafffhjzH=$$+;nBkfsafafsasaafhflhAn&+O+&VCjhfffjaaaaasssshkVn=$",
"O%sHljhsaaa=affpasssshAk&+$=SSjssaashssspasjlhxJl&+O$=AMklffapfafaaafhhjxHp%++%mSjhsafpsspfppshjjjBN&@.$&AckhfffhspsaaffafhkAz*$",
"O%sHljjsaaaaffaasssssgAg%+&=BDjsssafhsshpsshlllLl&@O$=AMkkffaaaafaafsfhjlH:$++&NclhssfssssfsssfjljAN&@.$&ANkhfffjspspfffafhlBz>$",
"@%sHljhsaaa>faf=asssshAf$.%=CSjfsa=fhsssssshlhlLv&+O$*FVllhfspaagaafhhhjxHp%O$&nSjfssfssssspssfhjjAA&$+$*VAkhfffhspsaaffffflAn>$",
"$*pHljjsaa>=ffafasssskGf%@$=CSlsssashsahpashlllLl&$O$=AMlkffassagaaashhklHa%O#%VBlhasfssssfsssjjljSc&$.$*cBkhfhffsps>afaafflAk:%",
"$%aHlkhsaaaafafassssfkDa$.%=DChssaashsssssshljlLv&$O$*HMkkhfspapfaadhhhjbH>&O+&mSjhfsfasssfpfshjkkAV&$O$*nAkhffhfsafpffffffkAg*$",
"$$aHlkjsaaaifa,assfsfkH=%+$aDChssaphsssspsshljlDn&+O$=GMllshsaspfaasshjjkH:$+@&nSlhffspfssssssjjlkAV&+.$=nAhhhfhfpaappfaffflAg&$",
"$%aHlkhssaaiffafasfshzHa%$%=SCjsssashsssasshkjlJn&+O$=DcllshspspfaasfhhjlHa$+@&nSjffsspfssfssshjklFn&$O$*zAkhhfhffppfaffafflFf*$",
"$%>GljhsaaaaaffassfffzJs&.$=SChssaasssssasshlllLz$+O$=JclkfsspppfaasfhhhkHf$$+;nSlfffspsfsfpsfhjjlGz&+.$*zAkhfhhsppfpffaafflGf*$",
"$&>HkjhffpapffaassfffxDp%O$*AAfssspffassasshlklDz&$O$>HmljfsppspssssffhjlHj$++%bSlhffspsfsssssjjllDk%$X$*NAhjfhhaaaaassafffjHf&@",
"$&aHljjfaaa=aafasssfjlD=%O$*ACffsaasssassashljlLn*$O$aHmllfspsppsppsshhjkHk%++%vDlhffaaafffasfhjllHk&$.$&NAkhfhfaaaaasssafflHa&+",
"$&aHljhsaaapafafsssfhzD&$+O&ABsfsaaffassasshkjlLn*$X$pHmllfsppspfspsfhhjkHh%++%jDlhhfapasfssffhlllHz&$O$&NckhhhfaaaaassafffkHa&+",
"$*aHljjfaaaaffaassffhlH=%.+&AMfsssasssassafhlhxLz&@+$pHNljssspspsassshjjlDa$#+%jDlhhfsapsfssfshjllHN*$.$*zAkjfhhsapaaassaffhHf&O",
"@*aHlkjsaaappffffpffhlH=$O+*DBfsssasssassafhljlLl&@O$=HmllfsspspfaasshjjlGi%O@%hDxhhhaspfffssfhlllHc*$.$&NckkhhfpsippssasfhkHa;O",
"$*aHlkjfaaa=ffppafffllH=%.$=DcffsaaffsassashljzLk&$O$pDBljssppspssashhjjlHp%O@%jDlhlssppshfasfhlllHz&$O$&zAkkfhfpsappsassffkHf&O",
"$*pHlkhsaaappfpsfaffhkH>%O+=DMsfsaafsaasssshlhzKz&$O$=HNljffpsapssssshjkcHa&++%bDljjhaapshfsffhlllDA&$.$*nAhkhjhaapapsssssfkHa$+",
"$*pHljhhaaap>ffspffhjjHg%++sJzffssasfsasssshljzLk&$+$=DNljffppapssashhjknJs;@$&VSljjssapsffsffhlllDc&$.$&nAhkfhfpsapppsssfgkHf$$",
"$&aHlkhfspppsssassshhlHg%O$gLMssfassssasssfhljzLz%+O$=HNlksspaapsaafghjkzJa&++&AAkjjfsapshfssfhlklDN%@.$&nMjkhhhasaaaaasffhkHs%@",
"+;aSlkhsspapasssasshhkDg&O$sDMhfsssssssssssjljzJz%++$=DBlksfaaapssasfjkkzH*&++&ASljkfsspfhfsffflllHN&+O$&nCjlhjfpfpaaafasfjkHf%@",
"$*aGlkhhsappassassshhkSj&O&aJMsfssssssssfsfhxhzDz&@O$=HNljhsaappsaffhhjkzJ=&+@&nHlkkssspfffsffjlkxHm&$O+&nCjkjjhafaaaafasfhkJa%+",
"+*aAkjhsppspassaasffhjSk&O%sDBffhsssssssssfhllxLA*%.@=HAlhhsaaapsaafhjjlzHa&O@&jJckkssspsffsffjxlxHb%$.@&nMhljjsasiaaasfsfjkHa$@",
"+*aFkjhsaaaaassassshfjFk%+$sKAfssssshsssfsflljcLB=%O@=DBlhsssaa=ssafhhjlzHp$o@%kIxxkfsspsfffffhllxDc%$ @&nVhljkssfaapafaffjkHa$@",
"+:kCjhgfapapassaasshjjAj@+$fJSfhhsssssssssfhxjcUB=&O@=JBljhsaaaasaaffhjjzHa$O@&kJxkkffsasfffffjlkxJm%$ +&NVfkkksafpaaasssfjlHa$+",
"+:bCkhfhaaapassassshfjAf%+@fJDhsssssssshfsfhllcUN=&O$=JNlhhsaaa=ssafhhjlzHa$O+&kIxlkfssasffffjjxllJz&$ +&nMskkkasfaaaafsshjkJa$@",
"+&nVjhffapaaaassasfffjAf@+%=JDhshsshssssfffhxxcUms&O$=JBlhhsaa=asaashjjjzHa$O$%lIxxkhfsasffffffxlzHm%$ +&NMhkkksfs>aaafsshjkKa$+",
"O&nMjfffaaapassaasshsjAf@O@=DDhffffsfssffsfjxlxUBs%.$=JMxhfssppasspshhjjxJf%O$&zIcxkffsasffffhhllcDm&+.+&VNhhjksssisasssshjlHa%@",
"+&bVjhffaasppssasashhjCj$O%*CDhffhffsssffffhxhxUz=$+$sPMlhffsapphppsfjjjxDj%O$&lIcllffsasffsfhlxlxLm&$ +&VmfhklsssppasssshjlHa%@",
"O&jBlfffaaapasaassfffjCf%O%=MUhhhffffsafffflxjcUz$+O%sPNjhffspapfpssshjklHl%O$&zIcxkhffasffsfhjxlxDm&+ +&NMjhjlshsaspsshshjlJa%@",
"O&vBjhffaaaapasaasfffhCf%O%&cUlhhhffssfffsfhllcUz&+O%=PmlhffsppafspshjjjlHn$O$*mIcxlffssssffffhllxDm*$.$*VmjhjkshspapssffhjkHa%@",
"+&vBjhsfaadpasaassfffhAg%O%*cUlfhhffssafffhjljxIk%$O$aLMlhffspppspasfhjjlHk$+$:nLcxkffsasssfhhhllzSV*$.$*NVjhhlsfspapsssshklJf%$",
"O&vCjhfhaaaapasaassffhVf%+%*MLlhhhffffffffhhllxLk&++$aLMhhffspppfsasfkjkxHf$O&&lIcllhfsassfsffhllzSB&$O$%VmkhhkshsaapsssshkkHa$$",
"@&hCksshaaaapsaassfffjAf%+&=cIxhhhffsasfffhhllxIl%++$aLclhhfspppfaasfjjkxHa$O$&kLcxlffsssfssffjllxSA&+O$&VMkhhkshsaapsssshjkJa%$",
"O&dClshsaaaapaaaasssfjBh%+&=xIxhhhfffssfsffhljxLz%$.$aLMjhffssapaassshjkxHa$O$:nJclkhsssssfshfjjllSA&$O+*VCjhfksfsaassssshkkHf%$",
"O$iCvfffaaaaaaaassfffhMv$@::nJnhhhhfsssfsffhljxDz&+O$aUmjjhfspppsaashhhlzJ=$O+*mJlllhfssssssfhhklxSc*@.$*nAjfhjfhaaaaafsffjlHf&$",
"+%dCvhffsaaaiaaaassfhhBv$@&inIMhhffffssfsffjlhxDm&+O$aUmjhhfsapssaasshhlzP=$O+=ADllkfsaassfffhhkllSA&$+$*nAhfhkfhfaapfffffjlHf*$",
"O&iGlhfhaaaaaaaasffshhCd@@&anIxhhhffsssfsffhlhxDB*+O%=LmjhhfssppsssshhhlzJf$O+*ADxllhssssssshshkllSc&$+$*nBkhhjfhsaaaaafffjlHg*$",
"O$iClffhaaaaiasassffhvGa$O&ixIMhhfffsssfssfhljxDAa%+%=UmjhhfspppssssshljzLf$O+&BSxljhssassssfhhjlxSA=$+$*CBjhhjfhaaaaassffjlHj=&",
"#%sCjffhaaaaaaaaashshxCi@O%*lJmhhfffsssssssfjjxDS*++%=UmlhhffaaasassfhllzJs$++&ASxljhsassssshfhhlzAHp$O$*VBkhhhhjapfpfffgfjjSz>$",
"+%aGbhfhsasapaaashshhbM&%@&&lHxjhfffssffsssfjjxDm%O+%=LmjjhfsapassasfhllcJa$+@=FDxllhsssssssffhhkccD=$+$*BNhhhhfkapfapafffjlAn=$",
"+&aGlhfhsasapaaashsfhmM&@O%*nJMhhfsfsssfsssfjjxDk&++$=Pmjjffsp=asassfhllzJs$++=nDxxjhsassassffhhjlBS*+O$pSmjhjhhhfpapfaaffjjAn*O",
"O$aCkhhhsaaapasasshfkmV*$O%*mDxhffffsssfsssshjxDk&O+$=PcjjhfsaaasassfhllzLg$++=kLxxlhsssassshshhjlNHp$O$fHckhhhfjapaaaffffjjAl&O",
"O&aGlfhffasapaaashfhhmC*$O@*mDxhhfsssssfsssfhjxJk&+O$=PzllhssaassaashhkkzLa%O$&kLxxlhssasssshsfhjlcLg++*lHzjhhhhhsaapsssffjkSf$+",
"O$aHlhhffasapaaasfhfjNA*@O@*MHlhffffsssfassshlxJk&+#$=Pzljhssa=ssssshhklzJa$O$&kLxxlhsasasashfhhhlcLg+.$kHcjhhhhhasaasasffkjSa%+",
"@$aHlhhffpaspaassffhjMF*$O@&CSxhffsssssfsssshjxJk&++$=Pzllhss=asasasfhklzJ=$O%&kLxzlhssssaasshhfjlcUg+O&fHcjjhhhhsaaaaaffhjkHa$@",
"@$aKllhfsasapaaashhfjMA*@O@&CHlhffsssssfpssshlxJk&+.$=Pzllhhf=assassfhkkzLa$O$*zLxxlhssaaasshshhhlcIf+O&fDzjhhhfhaaaaaafsfjkHa$+",
"@&sHbjhssasappsasghhkMG*$O@%NDlhffshassssssshlxLk&++$=JmllhfspasssssfhlkzJ=%+$*BDxlljasassaaffhfhlcJ*@+&fHzhjhhhhaaaasafshkkHa$+",
"@;aDxjhfsaaspaaaajhhjMG*$O@*mGlhhsssssshsssshjxLk%+#$=JmllhssaasaasshhkllJa$O$*CDlxljsasassshfhhjlBB%@.%fSzkhhhhfsaapaafsjjkHa$+",
"@*aKbkfssaaapaaaahhhkMH*%O+%mDlhfsshssahpssfhlcLk%++&dPmllhsspassassfhjlzLs$+@*SSxxljssapsashghhflcA%@.&lSzhjfhhfssapspfsjkkHa&+",
"$*aKxlfsaasapaaashhhkMS*%@@&mHlhhsssasshsssfhlcLg&$+&=HmjllsspassssffhklzLs$+@*ASlxxjaassasfffhhjlSD=$$*kHlhjhhhhaaaspsssjkkHa$+",
"$:aJllsssaaaiaaasjhhkBHi&++&NDlhfsssssshassshjcLh%++%*HBllkssapfasssfhljxJa$O@*zDlclksaspspfffhhhlCJs%+&lGljhhhhfaaaaaafshjkHa%@",
"%:aJxxsssaaaappasjfjkMHa&+@&nGlhhfffssshassfhkcLh&@+&fHcjllssapfsasshjjxxJ=%O$*lDlcclpspsspshhfhhxBIh$O&jDjjkhhhhasaaaasshjkHs%+",
"%:sJllssaaaapaaasjhhkMHa&+@&BSlhfsshssshassfhkxLh%++&fLcllksspsfasafhjljcLp%+%*lDxxxlpssfpfshhfhkkCGd$O%hHjlhhhhhaaaaaasfhjkHf%+",
"$:fHlksssaapaiiahjfjkMSa&+@*CDlhhhssasshassshkxLg&+@&fLcljlssppffaafhjjlcJa&+&=zSlxxlspspfpshfhjjkGNi@O@dHljhhghfaaaaaaffhjkHf$+",
"@&gHlkssaaaapa=ajffjjMSa&O$&nSlhfsssashgassfhkxLg%+$=fLcljlsspphaaafhjjxzJ=&$&=ADxlllpasfppffffhjkDm&@O@pCblhhhhfaaaapasshjkHf$@",
"O$sSkkssasaaappajhhhjMGa$O$&NSlhhhssasfjaasshhxLk%O+&lPcjllsspafsssfhjjlcJ=$+%=AClljlsaapfsfhfhjjxDx&$O$iNnjkhhksasapaaffhjkFf;@",
"O$aFkkssaaspa=aakhghjmHp$+$&CSljhfsa=shhaasfhkzLl%O+&jUxljjfsppsassshjllzL=$O%=ACxljkspsfspphffhklHb&$O$*nmkhhhkaasppaasfhjkHf$+",
"O$pFjjssaaaa=apfjffhjmHi$O+*MSkjhhss=shkassshhlDk%O$&sLxjjjfspshsaafhjjlzP=$O$aABkljkasppfffhffhjkHn&$O@&mmkghhkasaaapafshgkGa$+",
"O$aFhhsaassaa*afjffhhmG*@O@&nSkkhsssashhpssshjzJk;.$*aKzjljsspahsapfhjjlzJ*%.$fSBxlhjspsasasfffhjkDm%$O$:NnhhhhkaadapassshhkGs%O",
"O$pChhssaaaaapajhfhhjmA*$O@&nDljjsssashhasshhjzDk%+$&=JzljlsspahaasfhjjlzJ=$+%fScllhhssssassfffhjlDn&@O$&NmlhhhlpasppaasshhkGs%O",
"O$*AksssasaaaiajhffhjMC*$O+&nDljhsssasjjsasshjlJk;O.%=PzjjjfsaafsaaffljlzP=$O%fAMllhhsppasssfffhhjSm%@O@&CnkkfhjassaapashhhhGs$O",
"O$iAkhsaaasaiisjhfhfhMA*$O$&lDlkhhsspsjhpssshjzJl%+o%fPlljjfaaaffaafhjjjlJ=$.$=ABllhhsspsaasffshjjSm%@O$:VmkhhhlpaaaapassfhhFa%O",
"#%iFhhsssaaappshfffhkVC*$O$&nGljhsssashhaasshkzLl%$O$=PzjjjhsssfaasfhkhkzK=$O$=SBxlhhsaaaassfssfhjAn&@+%pCmlhhhkpaspapasshhhFa%O",
"O$iGhsssaaaappfjhffhkMC*$O@&mSlkhhssashjsssfhhzLl&+O%=PzljjssppjaapfhhkklK=$O%=SBxlhffaaasasssfffjAN%@+%aGmlkshkaaaappasfsfhFd%O",
"O%pGhsssaaaaapshhsfhkBV*$O@&mDljhssspshhpssfhkzKz%+.%aPzjjjfppafsaafhkhklJf%O%fSCxkhfssaaaassssffhCn%O+$:CnlhhhlpaaapapshsfhGg%O",
"O%aGhhssaaaappfhhfffjBV*$+$&lDljhhssashhasshgkzKl%OO%,PljjjffpaffaphhkhhlHg%O$fGCxlhfsaaaassaassffCN$O@$*CmlhsflpaapapasshshAd$O"
};
